0
SECTION
2
HEADER
9
$ACADVER
1
AC1014
9
$INSUNITS
70
1
0
ENDSEC
0
SECTION
2
TABLES
0
TABLE
2
LAYER
70
3
0
LAYER
2
0
70
0
62
7
6
CONTINUOUS
0
LAYER
2
BLOCKOUT
70
0
62
1
6
CONTINUOUS
0
LAYER
2
CHAMFER
70
0
62
3
6
CONTINUOUS
0
LAYER
2
DIMS
70
0
62
5
6
CONTINUOUS
0
LAYER
2
ANCHOR
70
0
62
2
6
CONTINUOUS
0
ENDTAB
0
ENDSEC
0
SECTION
2
ENTITIES
0
TEXT
8
DIMS
10
0
20
120
40
6
1
SOG BLOCKOUT DETAILS - ONCOR
0
TEXT
8
DIMS
10
0
20
110
40
4
1
SCALE: NTS
0
TEXT
8
DIMS
10
0
20
-10
40
5
1
BP-B (5'-8" x 8')
0
LINE
8
BLOCKOUT
10
0
20
0
11
68
21
0
0
LINE
8
BLOCKOUT
10
68
20
0
11
68
21
96
0
LINE
8
BLOCKOUT
10
68
20
96
11
0
21
96
0
LINE
8
BLOCKOUT
10
0
20
96
11
0
21
0
0
LINE
8
CHAMFER
10
0
20
0
11
6
21
6
0
LINE
8
CHAMFER
10
68
20
0
11
62
21
6
0
LINE
8
CHAMFER
10
68
20
96
11
62
21
90
0
LINE
8
CHAMFER
10
0
20
96
11
6
21
90
0
LINE
8
CHAMFER
10
6
20
6
11
6
21
90
0
LINE
8
CHAMFER
10
62
20
6
11
62
21
90
0
LINE
8
CHAMFER
10
6
20
6
11
62
21
6
0
LINE
8
CHAMFER
10
6
20
90
11
62
21
90
0
CIRCLE
8
ANCHOR
10
17
20
24
40
2
0
CIRCLE
8
ANCHOR
10
51
20
24
40
2
0
CIRCLE
8
ANCHOR
10
17
20
48
40
2
0
CIRCLE
8
ANCHOR
10
51
20
48
40
2
0
CIRCLE
8
ANCHOR
10
17
20
72
40
2
0
CIRCLE
8
ANCHOR
10
51
20
72
40
2
0
TEXT
8
DIMS
10
-15
20
48
40
3
1
5'-8"
0
TEXT
8
DIMS
10
34
20
-8
40
3
1
8'-0"
0
TEXT
8
DIMS
10
140
20
-10
40
5
1
BP-D (3' x 3')
0
LINE
8
BLOCKOUT
10
140
20
0
11
176
21
0
0
LINE
8
BLOCKOUT
10
176
20
0
11
176
21
36
0
LINE
8
BLOCKOUT
10
176
20
36
11
140
21
36
0
LINE
8
BLOCKOUT
10
140
20
36
11
140
21
0
0
LINE
8
CHAMFER
10
140
20
0
11
146
21
6
0
LINE
8
CHAMFER
10
176
20
0
11
170
21
6
0
LINE
8
CHAMFER
10
176
20
36
11
170
21
30
0
LINE
8
CHAMFER
10
140
20
36
11
146
21
30
0
LINE
8
CHAMFER
10
146
20
6
11
146
21
30
0
LINE
8
CHAMFER
10
170
20
6
11
170
21
30
0
LINE
8
CHAMFER
10
146
20
6
11
170
21
6
0
LINE
8
CHAMFER
10
146
20
30
11
170
21
30
0
CIRCLE
8
ANCHOR
10
152
20
12
40
1.5
0
CIRCLE
8
ANCHOR
10
164
20
12
40
1.5
0
CIRCLE
8
ANCHOR
10
152
20
24
40
1.5
0
CIRCLE
8
ANCHOR
10
164
20
24
40
1.5
0
TEXT
8
DIMS
10
130
20
18
40
3
1
3'-0"
0
TEXT
8
DIMS
10
155
20
-8
40
3
1
3'-0"
0
TEXT
8
DIMS
10
0
20
-30
40
5
1
BP-C (6'-3" x 4'-5")
0
LINE
8
BLOCKOUT
10
0
20
-80
11
75
21
-80
0
LINE
8
BLOCKOUT
10
75
20
-80
11
75
21
-27
0
LINE
8
BLOCKOUT
10
75
20
-27
11
0
21
-27
0
LINE
8
BLOCKOUT
10
0
20
-27
11
0
21
-80
0
LINE
8
CHAMFER
10
0
20
-80
11
6.25
21
-73.75
0
LINE
8
CHAMFER
10
75
20
-80
11
68.75
21
-73.75
0
LINE
8
CHAMFER
10
75
20
-27
11
68.75
21
-33.25
0
LINE
8
CHAMFER
10
0
20
-27
11
6.25
21
-33.25
0
LINE
8
CHAMFER
10
6.25
20
-73.75
11
6.25
21
-33.25
0
LINE
8
CHAMFER
10
68.75
20
-73.75
11
68.75
21
-33.25
0
LINE
8
CHAMFER
10
6.25
20
-73.75
11
68.75
21
-73.75
0
LINE
8
CHAMFER
10
6.25
20
-33.25
11
68.75
21
-33.25
0
CIRCLE
8
ANCHOR
10
18.75
20
-66.5
40
2
0
CIRCLE
8
ANCHOR
10
56.25
20
-66.5
40
2
0
CIRCLE
8
ANCHOR
10
18.75
20
-40.5
40
2
0
CIRCLE
8
ANCHOR
10
56.25
20
-40.5
40
2
0
TEXT
8
DIMS
10
-15
20
-53.5
40
3
1
6'-3"
0
TEXT
8
DIMS
10
30
20
-88
40
3
1
4'-5"
0
0
ENDSEC
0
EOF
