999
DXF created by Oncor
0
SECTION
2
HEADER
9
$ACADVER
1
AC1009
9
$EXTMIN
10
0.0
20
0.0
9
$EXTMAX
10
240.0
20
240.0
0
ENDSEC
0
SECTION
2
ENTITIES
0
TEXT
8
0
10
10.0
20
220.0
40
8.0
1
SOG BLOCKOUT DETAILS - SKT-2
0
TEXT
8
0
10
10.0
20
200.0
40
5.0
1
BP-B (5'-8" x 8'-0")
0
LINE
8
0
10
10.0
20
100.0
11
78.0
21
100.0
0
LINE
8
0
10
78.0
20
100.0
11
78.0
21
196.0
0
LINE
8
0
10
78.0
20
196.0
11
10.0
21
196.0
0
LINE
8
0
10
10.0
20
196.0
11
10.0
21
100.0
0
LINE
8
0
10
10.0
20
106.0
11
16.0
21
100.0
0
LINE
8
0
10
72.0
20
100.0
11
78.0
21
106.0
0
LINE
8
0
10
78.0
20
190.0
11
72.0
21
196.0
0
LINE
8
0
10
16.0
20
196.0
11
10.0
21
190.0
0
CIRCLE
8
0
10
28.0
20
124.0
40
3.0
0
CIRCLE
8
0
10
60.0
20
124.0
40
3.0
0
CIRCLE
8
0
10
28.0
20
148.0
40
3.0
0
CIRCLE
8
0
10
60.0
20
148.0
40
3.0
0
CIRCLE
8
0
10
28.0
20
172.0
40
3.0
0
CIRCLE
8
0
10
60.0
20
172.0
40
3.0
0
TEXT
8
0
10
120.0
20
200.0
40
5.0
1
BP-D (3'-0" x 3'-0")
0
LINE
8
0
10
120.0
20
140.0
11
156.0
21
140.0
0
LINE
8
0
10
156.0
20
140.0
11
156.0
21
176.0
0
LINE
8
0
10
156.0
20
176.0
11
120.0
21
176.0
0
LINE
8
0
10
120.0
20
176.0
11
120.0
21
140.0
0
LINE
8
0
10
120.0
20
146.0
11
126.0
21
140.0
0
LINE
8
0
10
150.0
20
140.0
11
156.0
21
146.0
0
LINE
8
0
10
156.0
20
170.0
11
150.0
21
176.0
0
LINE
8
0
10
126.0
20
176.0
11
120.0
21
170.0
0
CIRCLE
8
0
10
132.0
20
152.0
40
2.0
0
CIRCLE
8
0
10
144.0
20
152.0
40
2.0
0
CIRCLE
8
0
10
132.0
20
164.0
40
2.0
0
CIRCLE
8
0
10
144.0
20
164.0
40
2.0
0
TEXT
8
0
10
10.0
20
80.0
40
5.0
1
BP-C (6'-3" x 4'-5")
0
LINE
8
0
10
10.0
20
10.0
11
63.0
21
10.0
0
LINE
8
0
10
63.0
20
10.0
11
63.0
21
75.0
0
LINE
8
0
10
63.0
20
75.0
11
10.0
21
75.0
0
LINE
8
0
10
10.0
20
75.0
11
10.0
21
10.0
0
LINE
8
0
10
10.0
20
16.0
11
16.0
21
10.0
0
LINE
8
0
10
57.0
20
10.0
11
63.0
21
16.0
0
LINE
8
0
10
63.0
20
69.0
11
57.0
21
75.0
0
LINE
8
0
10
16.0
20
75.0
11
10.0
21
69.0
0
CIRCLE
8
0
10
24.0
20
28.0
40
3.0
0
CIRCLE
8
0
10
49.0
20
28.0
40
3.0
0
CIRCLE
8
0
10
24.0
20
57.0
40
3.0
0
CIRCLE
8
0
10
49.0
20
57.0
40
3.0
0
TEXT
8
0
10
120.0
20
80.0
40
5.0
1
BP-E (7'-6" x 10'-7")
0
LINE
8
0
10
120.0
20
10.0
11
227.0
21
10.0
0
LINE
8
0
10
227.0
20
10.0
11
227.0
21
100.0
0
LINE
8
0
10
227.0
20
100.0
11
120.0
21
100.0
0
LINE
8
0
10
120.0
20
100.0
11
120.0
21
10.0
0
LINE
8
0
10
120.0
20
16.0
11
126.0
21
10.0
0
LINE
8
0
10
221.0
20
10.0
11
227.0
21
16.0
0
LINE
8
0
10
227.0
20
94.0
11
221.0
21
100.0
0
LINE
8
0
10
126.0
20
100.0
11
120.0
21
94.0
0
CIRCLE
8
0
10
145.0
20
35.0
40
3.0
0
CIRCLE
8
0
10
173.0
20
35.0
40
3.0
0
CIRCLE
8
0
10
202.0
20
35.0
40
3.0
0
CIRCLE
8
0
10
145.0
20
75.0
40
3.0
0
CIRCLE
8
0
10
173.0
20
75.0
40
3.0
0
CIRCLE
8
0
10
202.0
20
75.0
40
3.0
0
0
ENDSEC
0
EOF
