  0
SECTION
  2
HEADER
  9
$ACADVER
  1
AC1009
  0
ENDSEC
  0
SECTION
  2
TABLES
  0
TABLE
  2
LTYPE
 70
1
  0
LTYPE
  2
CONTINUOUS
 70
0
  3
Solid line
 72
65
 73
0
 40
0.0
  0
ENDTAB
  0
TABLE
  2
LAYER
 70
1
  0
LAYER
  2
0
 70
0
 62
7
  6
CONTINUOUS
  0
ENDTAB
  0
ENDSEC
  0
SECTION
  2
ENTITIES
  0
LINE
  8
0
 10
10.0
 20
100.0
 30
0.0
 11
78.0
 21
100.0
 31
0.0
  0
LINE
  8
0
 10
78.0
 20
100.0
 30
0.0
 11
78.0
 21
196.0
 31
0.0
  0
LINE
  8
0
 10
78.0
 20
196.0
 30
0.0
 11
10.0
 21
196.0
 31
0.0
  0
LINE
  8
0
 10
10.0
 20
196.0
 30
0.0
 11
10.0
 21
100.0
 31
0.0
  0
CIRCLE
  8
0
 10
28.0
 20
124.0
 30
0.0
 40
3.0
  0
CIRCLE
  8
0
 10
60.0
 20
124.0
 30
0.0
 40
3.0
  0
CIRCLE
  8
0
 10
28.0
 20
148.0
 30
0.0
 40
3.0
  0
CIRCLE
  8
0
 10
60.0
 20
148.0
 30
0.0
 40
3.0
  0
CIRCLE
  8
0
 10
28.0
 20
172.0
 30
0.0
 40
3.0
  0
CIRCLE
  8
0
 10
60.0
 20
172.0
 30
0.0
 40
3.0
  0
LINE
  8
0
 10
120.0
 20
140.0
 30
0.0
 11
156.0
 21
140.0
 31
0.0
  0
LINE
  8
0
 10
156.0
 20
140.0
 30
0.0
 11
156.0
 21
176.0
 31
0.0
  0
LINE
  8
0
 10
156.0
 20
176.0
 30
0.0
 11
120.0
 21
176.0
 31
0.0
  0
LINE
  8
0
 10
120.0
 20
176.0
 30
0.0
 11
120.0
 21
140.0
 31
0.0
  0
CIRCLE
  8
0
 10
132.0
 20
152.0
 30
0.0
 40
2.0
  0
CIRCLE
  8
0
 10
144.0
 20
152.0
 30
0.0
 40
2.0
  0
CIRCLE
  8
0
 10
132.0
 20
164.0
 30
0.0
 40
2.0
  0
CIRCLE
  8
0
 10
144.0
 20
164.0
 30
0.0
 40
2.0
  0
ENDSEC
  0
EOF
