  0
SECTION
  2
HEADER
  9
$ACADVER
  1
AC1009
  9
$DWGCODEPAGE
  3
ANSI_1252
  9
$INSBASE
 10
0.0
 20
0.0
 30
0.0
  9
$EXTMIN
 10
1e+20
 20
1e+20
 30
1e+20
  9
$EXTMAX
 10
-1e+20
 20
-1e+20
 30
-1e+20
  9
$LIMMIN
 10
0.0
 20
0.0
  9
$LIMMAX
 10
420.0
 20
297.0
  9
$ORTHOMODE
 70
0
  9
$REGENMODE
 70
1
  9
$FILLMODE
 70
1
  9
$DRAGMODE
 70
2
  9
$QTEXTMODE
 70
0
  9
$MIRRTEXT
 70
1
  9
$OSMODE
 70
20583
  9
$LTSCALE
 40
1.0
  9
$ATTMODE
 70
1
  9
$TEXTSIZE
 40
2.5
  9
$TRACEWID
 40
1.0
  9
$TEXTSTYLE
  7
Standard
  9
$CLAYER
  8
0
  9
$CELTYPE
  6
ByLayer
  9
$CECOLOR
 62
256
  9
$DIMSCALE
 40
1.0
  9
$DIMASZ
 40
2.5
  9
$DIMEXO
 40
0.625
  9
$DIMDLI
 40
3.75
  9
$DIMRND
 40
0.0
  9
$DIMDLE
 40
0.0
  9
$DIMEXE
 40
1.25
  9
$DIMTP
 40
0.0
  9
$DIMTM
 40
0.0
  9
$DIMTXT
 40
2.5
  9
$DIMCEN
 40
2.5
  9
$DIMTSZ
 40
0.0
  9
$DIMTOL
 70
0
  9
$DIMLIM
 70
0
  9
$DIMTIH
 70
0
  9
$DIMTOH
 70
0
  9
$DIMSE1
 70
0
  9
$DIMSE2
 70
0
  9
$DIMTAD
 70
1
  9
$DIMZIN
 70
8
  9
$DIMBLK
  1

  9
$DIMASO
 70
1
  9
$DIMSHO
 70
1
  9
$DIMPOST
  1

  9
$DIMAPOST
  1

  9
$DIMALT
 70
0
  9
$DIMALTD
 70
3
  9
$DIMALTF
 40
0.03937007874
  9
$DIMLFAC
 40
1.0
  9
$DIMTOFL
 70
1
  9
$DIMTVP
 40
0.0
  9
$DIMTIX
 70
0
  9
$DIMSOXD
 70
0
  9
$DIMSAH
 70
0
  9
$DIMBLK1
  1

  9
$DIMBLK2
  1

  9
$DIMSTYLE
  2
ISO-25
  9
$DIMCLRD
 70
0
  9
$DIMCLRE
 70
0
  9
$DIMCLRT
 70
0
  9
$DIMTFAC
 40
1.0
  9
$DIMGAP
 40
0.625
  9
$COORDS
 70
1
  9
$ATTDIA
 70
0
  9
$ATTREQ
 70
1
  9
$HANDLING
 70
1
  9
$LUNITS
 70
2
  9
$LUPREC
 70
4
  9
$SKETCHINC
 40
1.0
  9
$FILLETRAD
 40
10.0
  9
$AUNITS
 70
0
  9
$AUPREC
 70
2
  9
$MENU
  1
.
  9
$ELEVATION
 40
0.0
  9
$PELEVATION
 40
0.0
  9
$THICKNESS
 40
0.0
  9
$LIMCHECK
 70
0
  9
$CHAMFERA
 40
0.0
  9
$CHAMFERB
 40
0.0
  9
$SKPOLY
 70
0
  9
$TDCREATE
 40
2461106.2813078705
  9
$TDUPDATE
 40
2461106.2813078705
  9
$TDINDWG
 40
0.0
  9
$TDUSRTIMER
 40
0.0
  9
$USRTIMER
 70
1
  9
$ANGBASE
 50
0.0
  9
$ANGDIR
 70
0
  9
$PDMODE
 70
0
  9
$PDSIZE
 40
0.0
  9
$PLINEWID
 40
0.0
  9
$SPLFRAME
 70
0
  9
$SPLINETYPE
 70
6
  9
$SPLINESEGS
 70
8
  9
$HANDSEED
  5
6D
  9
$SURFTAB1
 70
6
  9
$SURFTAB2
 70
6
  9
$SURFTYPE
 70
6
  9
$SURFU
 70
6
  9
$SURFV
 70
6
  9
$UCSNAME
  2

  9
$UCSORG
 10
0.0
 20
0.0
 30
0.0
  9
$UCSXDIR
 10
1.0
 20
0.0
 30
0.0
  9
$UCSYDIR
 10
0.0
 20
1.0
 30
0.0
  9
$PUCSNAME
  2

  9
$PUCSORG
 10
0.0
 20
0.0
 30
0.0
  9
$PUCSXDIR
 10
1.0
 20
0.0
 30
0.0
  9
$PUCSYDIR
 10
0.0
 20
1.0
 30
0.0
  9
$USERI1
 70
0
  9
$USERI2
 70
0
  9
$USERI3
 70
0
  9
$USERI4
 70
0
  9
$USERI5
 70
0
  9
$USERR1
 40
0.0
  9
$USERR2
 40
0.0
  9
$USERR3
 40
0.0
  9
$USERR4
 40
0.0
  9
$USERR5
 40
0.0
  9
$WORLDVIEW
 70
1
  9
$SHADEDGE
 70
3
  9
$SHADEDIF
 70
70
  9
$TILEMODE
 70
1
  9
$MAXACTVP
 70
64
  9
$PLIMCHECK
 70
0
  9
$PEXTMIN
 10
1e+20
 20
1e+20
 30
1e+20
  9
$PEXTMAX
 10
-1e+20
 20
-1e+20
 30
-1e+20
  9
$PLIMMIN
 10
0.0
 20
0.0
  9
$PLIMMAX
 10
420.0
 20
297.0
  9
$UNITMODE
 70
0
  9
$VISRETAIN
 70
1
  9
$PLINEGEN
 70
0
  9
$PSLTSCALE
 70
1
  0
ENDSEC
  0
SECTION
  2
TABLES
  0
TABLE
  2
VPORT
 70
1
  0
VPORT
  5
23
  2
*Active
 70
0
 10
0.0
 20
0.0
 11
1.0
 21
1.0
 12
0.0
 22
0.0
 13
0.0
 23
0.0
 14
0.5
 24
0.5
 15
0.5
 25
0.5
 16
0.0
 26
0.0
 36
1.0
 17
0.0
 27
0.0
 37
0.0
 40
1000.0
 41
1.34
 42
50.0
 43
0.0
 44
0.0
 50
0.0
 51
0.0
 71
0
 72
1000
 73
1
 74
3
 75
0
 76
0
 77
0
 78
0
  0
ENDTAB
  0
TABLE
  2
LTYPE
 70
3
  0
LTYPE
  5
24
  2
ByBlock
 70
0
  3

 72
65
 73
0
 40
0.0
  0
LTYPE
  5
25
  2
ByLayer
 70
0
  3

 72
65
 73
0
 40
0.0
  0
LTYPE
  5
26
  2
Continuous
 70
0
  3

 72
65
 73
0
 40
0.0
  0
ENDTAB
  0
TABLE
  2
LAYER
 70
2
  0
LAYER
  5
27
  2
0
 70
0
 62
7
  6
Continuous
  0
LAYER
  5
28
  2
Defpoints
 70
0
 62
7
  6
Continuous
  0
ENDTAB
  0
TABLE
  2
STYLE
 70
1
  0
STYLE
  5
29
  2
Standard
 70
0
 40
0.0
 41
1.0
 50
0.0
 71
0
 42
2.5
  3
txt
  4

  0
ENDTAB
  0
TABLE
  2
VIEW
 70
0
  0
ENDTAB
  0
TABLE
  2
UCS
 70
0
  0
ENDTAB
  0
TABLE
  2
APPID
 70
3
  0
APPID
  5
2A
  2
ACAD
 70
0
  0
APPID
  5
6B
  2
HATCHBACKGROUNDCOLOR
 70
0
  0
APPID
  5
6C
  2
EZDXF
 70
0
  0
ENDTAB
  0
TABLE
  2
DIMSTYLE
 70
1
  0
DIMSTYLE
105
2B
  2
Standard
 70
0
  3

  4

  5

  6

  7

 40
1.0
 41
2.5
 42
0.625
 43
3.75
 44
1.25
 45
0.0
 46
0.0
 47
0.0
 48
0.0
140
2.5
141
2.5
142
0.0
143
0.03937007874
144
1.0
145
0.0
146
1.0
147
0.625
 71
0
 72
0
 73
0
 74
0
 75
0
 76
0
 77
1
 78
8
170
0
171
3
172
1
173
0
174
0
175
0
176
0
177
0
178
0
  0
ENDTAB
  0
ENDSEC
  0
SECTION
  2
BLOCKS
  0
BLOCK
  5
18
  8
0
  2
$Model_Space
 70
0
 10
0.0
 20
0.0
 30
0.0
  3
$Model_Space
  1

1001
EZDXF
1000
CREATED_BY_EZDXF
1000
1.4.3 @ 2026-03-06T06:45:05.956558+00:00
1000
WRITTEN_BY_EZDXF
1000
1.4.3 @ 2026-03-06T06:45:05.961859+00:00
  0
ENDBLK
  5
19
  8
0
  0
BLOCK
  5
1C
  8
0
  2
$Paper_Space
 70
0
 10
0.0
 20
0.0
 30
0.0
  3
$Paper_Space
  1

  0
ENDBLK
  5
1D
  8
0
  0
ENDSEC
  0
SECTION
  2
ENTITIES
  0
LINE
  5
2D
  8
0
 10
0.0
 20
0.0
 30
0.0
 11
21.1875
 21
0.0
 31
0.0
  0
LINE
  5
2E
  8
0
 10
21.1875
 20
0.0
 30
0.0
 11
21.1875
 21
21.1875
 31
0.0
  0
LINE
  5
2F
  8
0
 10
21.1875
 20
21.1875
 30
0.0
 11
0.0
 21
21.1875
 31
0.0
  0
LINE
  5
30
  8
0
 10
0.0
 20
21.1875
 30
0.0
 11
0.0
 21
0.0
 31
0.0
  0
LINE
  5
31
  8
0
 10
0.0
 20
6.0
 30
0.0
 11
6.0
 21
0.0
 31
0.0
  0
LINE
  5
32
  8
0
 10
15.1875
 20
0.0
 30
0.0
 11
21.1875
 21
6.0
 31
0.0
  0
LINE
  5
33
  8
0
 10
21.1875
 20
15.1875
 30
0.0
 11
15.1875
 21
21.1875
 31
0.0
  0
LINE
  5
34
  8
0
 10
6.0
 20
21.1875
 30
0.0
 11
0.0
 21
15.1875
 31
0.0
  0
CIRCLE
  5
35
  8
0
 10
8.59375
 20
8.31375
 30
0.0
 40
0.53
  0
CIRCLE
  5
36
  8
0
 10
8.59375
 20
12.87375
 30
0.0
 40
0.53
  0
CIRCLE
  5
37
  8
0
 10
12.59375
 20
8.31375
 30
0.0
 40
0.53
  0
CIRCLE
  5
38
  8
0
 10
12.59375
 20
12.87375
 30
0.0
 40
0.53
  0
TEXT
  5
39
  8
0
 10
0.0
 20
25.1875
 30
0.0
 40
1.5
  1
TPL1 BLOCKOUT
 11
0.0
 21
25.1875
 31
0.0
  0
TEXT
  5
3A
  8
0
 10
0.0
 20
23.1875
 30
0.0
 40
1.2
  1
21" x 21"
 11
0.0
 21
23.1875
 31
0.0
  0
LINE
  5
3B
  8
0
 10
35.0
 20
0.0
 30
0.0
 11
61.0
 21
0.0
 31
0.0
  0
LINE
  5
3C
  8
0
 10
61.0
 20
0.0
 30
0.0
 11
61.0
 21
32.0
 31
0.0
  0
LINE
  5
3D
  8
0
 10
61.0
 20
32.0
 30
0.0
 11
35.0
 21
32.0
 31
0.0
  0
LINE
  5
3E
  8
0
 10
35.0
 20
32.0
 30
0.0
 11
35.0
 21
0.0
 31
0.0
  0
LINE
  5
3F
  8
0
 10
35.0
 20
6.0
 30
0.0
 11
41.0
 21
0.0
 31
0.0
  0
LINE
  5
40
  8
0
 10
55.0
 20
0.0
 30
0.0
 11
61.0
 21
6.0
 31
0.0
  0
LINE
  5
41
  8
0
 10
61.0
 20
26.0
 30
0.0
 11
55.0
 21
32.0
 31
0.0
  0
LINE
  5
42
  8
0
 10
41.0
 20
32.0
 30
0.0
 11
35.0
 21
26.0
 31
0.0
  0
CIRCLE
  5
43
  8
0
 10
45.0
 20
11.0
 30
0.0
 40
0.53
  0
CIRCLE
  5
44
  8
0
 10
45.0
 20
21.0
 30
0.0
 40
0.53
  0
CIRCLE
  5
45
  8
0
 10
51.0
 20
11.0
 30
0.0
 40
0.53
  0
CIRCLE
  5
46
  8
0
 10
51.0
 20
21.0
 30
0.0
 40
0.53
  0
TEXT
  5
47
  8
0
 10
35.0
 20
36.0
 30
0.0
 40
1.5
  1
TPL3 BLOCKOUT
 11
35.0
 21
36.0
 31
0.0
  0
TEXT
  5
48
  8
0
 10
35.0
 20
34.0
 30
0.0
 40
1.2
  1
26" x 32"
 11
35.0
 21
34.0
 31
0.0
  0
LINE
  5
49
  8
0
 10
75.0
 20
0.0
 30
0.0
 11
117.0
 21
0.0
 31
0.0
  0
LINE
  5
4A
  8
0
 10
117.0
 20
0.0
 30
0.0
 11
117.0
 21
43.5
 31
0.0
  0
LINE
  5
4B
  8
0
 10
117.0
 20
43.5
 30
0.0
 11
75.0
 21
43.5
 31
0.0
  0
LINE
  5
4C
  8
0
 10
75.0
 20
43.5
 30
0.0
 11
75.0
 21
0.0
 31
0.0
  0
LINE
  5
4D
  8
0
 10
75.0
 20
6.0
 30
0.0
 11
81.0
 21
0.0
 31
0.0
  0
LINE
  5
4E
  8
0
 10
111.0
 20
0.0
 30
0.0
 11
117.0
 21
6.0
 31
0.0
  0
LINE
  5
4F
  8
0
 10
117.0
 20
37.5
 30
0.0
 11
111.0
 21
43.5
 31
0.0
  0
LINE
  5
50
  8
0
 10
81.0
 20
43.5
 30
0.0
 11
75.0
 21
37.5
 31
0.0
  0
CIRCLE
  5
51
  8
0
 10
88.0
 20
9.75
 30
0.0
 40
1.03
  0
CIRCLE
  5
52
  8
0
 10
88.0
 20
17.75
 30
0.0
 40
1.03
  0
CIRCLE
  5
53
  8
0
 10
88.0
 20
25.75
 30
0.0
 40
1.03
  0
CIRCLE
  5
54
  8
0
 10
88.0
 20
33.75
 30
0.0
 40
1.03
  0
CIRCLE
  5
55
  8
0
 10
104.0
 20
9.75
 30
0.0
 40
1.03
  0
CIRCLE
  5
56
  8
0
 10
104.0
 20
17.75
 30
0.0
 40
1.03
  0
CIRCLE
  5
57
  8
0
 10
104.0
 20
25.75
 30
0.0
 40
1.03
  0
CIRCLE
  5
58
  8
0
 10
104.0
 20
33.75
 30
0.0
 40
1.03
  0
TEXT
  5
59
  8
0
 10
75.0
 20
47.5
 30
0.0
 40
1.5
  1
TPL4 BLOCKOUT
 11
75.0
 21
47.5
 31
0.0
  0
TEXT
  5
5A
  8
0
 10
75.0
 20
45.5
 30
0.0
 40
1.2
  1
42" x 43-1/2"
 11
75.0
 21
45.5
 31
0.0
  0
LINE
  5
5B
  8
0
 10
0.0
 20
-40.0
 30
0.0
 11
19.625
 21
-40.0
 31
0.0
  0
LINE
  5
5C
  8
0
 10
19.625
 20
-40.0
 30
0.0
 11
19.625
 21
-14.8125
 31
0.0
  0
LINE
  5
5D
  8
0
 10
19.625
 20
-14.8125
 30
0.0
 11
0.0
 21
-14.8125
 31
0.0
  0
LINE
  5
5E
  8
0
 10
0.0
 20
-14.8125
 30
0.0
 11
0.0
 21
-40.0
 31
0.0
  0
LINE
  5
5F
  8
0
 10
0.0
 20
-35.0
 30
0.0
 11
5.0
 21
-40.0
 31
0.0
  0
LINE
  5
60
  8
0
 10
14.625
 20
-40.0
 30
0.0
 11
19.625
 21
-35.0
 31
0.0
  0
LINE
  5
61
  8
0
 10
19.625
 20
-19.8125
 30
0.0
 11
14.625
 21
-14.8125
 31
0.0
  0
LINE
  5
62
  8
0
 10
5.0
 20
-14.8125
 30
0.0
 11
0.0
 21
-19.8125
 31
0.0
  0
CIRCLE
  5
63
  8
0
 10
7.9125
 20
-33.20625
 30
0.0
 40
0.66
  0
CIRCLE
  5
64
  8
0
 10
7.9125
 20
-21.60625
 30
0.0
 40
0.66
  0
CIRCLE
  5
65
  8
0
 10
11.7125
 20
-33.20625
 30
0.0
 40
0.66
  0
CIRCLE
  5
66
  8
0
 10
11.7125
 20
-21.60625
 30
0.0
 40
0.66
  0
TEXT
  5
67
  8
0
 10
0.0
 20
-10.8125
 30
0.0
 40
1.5
  1
TPL7 BLOCKOUT
 11
0.0
 21
-10.8125
 31
0.0
  0
TEXT
  5
68
  8
0
 10
0.0
 20
-12.8125
 30
0.0
 40
1.2
  1
19-5/8" x 25"
 11
0.0
 21
-12.8125
 31
0.0
  0
TEXT
  5
69
  8
0
 10
0.0
 20
60.0
 30
0.0
 40
3.0
  1
META TXE10 SOG BLOCKOUT DETAILS
 11
0.0
 21
60.0
 31
0.0
  0
TEXT
  5
6A
  8
0
 10
0.0
 20
55.0
 30
0.0
 40
1.5
  1
SURE STEEL TEMPLATES - 6" CLEARANCE
 11
0.0
 21
55.0
 31
0.0
  0
ENDSEC
  0
EOF
