0
SECTION
2
HEADER
9
$ACADVER
1
AC1014
9
$INSUNITS
70
1
0
ENDSEC
0
SECTION
2
TABLES
0
TABLE
2
LAYER
70
4
0
LAYER
2
0
70
0
62
7
6
CONTINUOUS
0
LAYER
2
SLAB
70
0
62
3
6
CONTINUOUS
0
LAYER
2
BLOCKOUT
70
0
62
1
6
CONTINUOUS
0
LAYER
2
ANCHOR
70
0
62
2
6
CONTINUOUS
0
LAYER
2
DIMS
70
0
62
5
6
CONTINUOUS
0
ENDTAB
0
ENDSEC
0
SECTION
2
ENTITIES
0
TEXT
8
DIMS
10
36
20
250
40
8
1
SOG BLOCKOUT DETAILS
0
TEXT
8
DIMS
10
50
20
238
40
4
1
SKT-2
0
TEXT
8
DIMS
10
0
20
205
40
5
1
BP-B
0
LINE
8
SLAB
10
-12
20
80
11
80
21
80
0
LINE
8
SLAB
10
80
20
80
11
80
21
200
0
LINE
8
SLAB
10
80
20
200
11
-12
21
200
0
LINE
8
SLAB
10
-12
20
200
11
-12
21
80
0
LINE
8
BLOCKOUT
10
0
20
92
11
6
21
86
0
LINE
8
BLOCKOUT
10
6
20
86
11
62
21
86
0
LINE
8
BLOCKOUT
10
62
20
86
11
68
21
92
0
LINE
8
BLOCKOUT
10
68
20
92
11
68
21
188
0
LINE
8
BLOCKOUT
10
68
20
188
11
62
21
194
0
LINE
8
BLOCKOUT
10
62
20
194
11
6
21
194
0
LINE
8
BLOCKOUT
10
6
20
194
11
0
21
188
0
LINE
8
BLOCKOUT
10
0
20
188
11
0
21
92
0
CIRCLE
8
ANCHOR
10
17
20
110
40
2
0
CIRCLE
8
ANCHOR
10
51
20
110
40
2
0
CIRCLE
8
ANCHOR
10
17
20
140
40
2
0
CIRCLE
8
ANCHOR
10
51
20
140
40
2
0
CIRCLE
8
ANCHOR
10
17
20
170
40
2
0
CIRCLE
8
ANCHOR
10
51
20
170
40
2
0
TEXT
8
DIMS
10
-25
20
140
40
3
1
5'-8"
0
TEXT
8
DIMS
10
25
20
75
40
3
1
8'-0"
0
TEXT
8
DIMS
10
120
20
205
40
5
1
BP-D
0
LINE
8
SLAB
10
110
20
115
11
200
21
115
0
LINE
8
SLAB
10
200
20
115
11
200
21
165
0
LINE
8
SLAB
10
200
20
165
11
110
21
165
0
LINE
8
SLAB
10
110
20
165
11
110
21
115
0
LINE
8
BLOCKOUT
10
128
20
134
11
134
21
128
0
LINE
8
BLOCKOUT
10
134
20
128
11
176
21
128
0
LINE
8
BLOCKOUT
10
176
20
128
11
182
21
134
0
LINE
8
BLOCKOUT
10
182
20
134
11
182
21
146
0
LINE
8
BLOCKOUT
10
182
20
146
11
176
21
152
0
LINE
8
BLOCKOUT
10
176
20
152
11
134
21
152
0
LINE
8
BLOCKOUT
10
134
20
152
11
128
21
146
0
LINE
8
BLOCKOUT
10
128
20
146
11
128
21
134
0
CIRCLE
8
ANCHOR
10
143
20
134
40
1.5
0
CIRCLE
8
ANCHOR
10
167
20
134
40
1.5
0
CIRCLE
8
ANCHOR
10
143
20
146
40
1.5
0
CIRCLE
8
ANCHOR
10
167
20
146
40
1.5
0
TEXT
8
DIMS
10
118
20
110
40
3
1
1'-6"
0
TEXT
8
DIMS
10
148
20
118
40
3
1
6"
0
TEXT
8
DIMS
10
145
20
158
40
2.5
1
3'-0" x 3'-0" BLOCKOUT
0
TEXT
8
DIMS
10
0
20
55
40
5
1
BP-C
0
LINE
8
SLAB
10
-12
20
-60
11
90
21
-60
0
LINE
8
SLAB
10
90
20
-60
11
90
21
50
0
LINE
8
SLAB
10
90
20
50
11
-12
21
50
0
LINE
8
SLAB
10
-12
20
50
11
-12
21
-60
0
LINE
8
BLOCKOUT
10
0
20
-42
11
6.25
21
-48.25
0
LINE
8
BLOCKOUT
10
6.25
20
-48.25
11
68.75
21
-48.25
0
LINE
8
BLOCKOUT
10
68.75
20
-48.25
11
75
21
-42
0
LINE
8
BLOCKOUT
10
75
20
-42
11
75
21
36
0
LINE
8
BLOCKOUT
10
75
20
36
11
68.75
21
42.25
0
LINE
8
BLOCKOUT
10
68.75
20
42.25
11
6.25
21
42.25
0
LINE
8
BLOCKOUT
10
6.25
20
42.25
11
0
21
36
0
LINE
8
BLOCKOUT
10
0
20
36
11
0
21
-42
0
CIRCLE
8
ANCHOR
10
18.75
20
-30
40
2
0
CIRCLE
8
ANCHOR
10
56.25
20
-30
40
2
0
CIRCLE
8
ANCHOR
10
18.75
20
20
40
2
0
CIRCLE
8
ANCHOR
10
56.25
20
20
40
2
0
TEXT
8
DIMS
10
-25
20
-3
40
3
1
6'-3"
0
TEXT
8
DIMS
10
30
20
-65
40
3
1
4'-5"
0
TEXT
8
DIMS
10
120
20
55
40
5
1
BP-E
0
LINE
8
SLAB
10
100
20
-65
11
230
21
-65
0
LINE
8
SLAB
10
230
20
-65
11
230
21
50
0
LINE
8
SLAB
10
230
20
50
11
100
21
50
0
LINE
8
SLAB
10
100
20
50
11
100
21
-65
0
LINE
8
BLOCKOUT
10
112
20
-53
11
118
21
-59
0
LINE
8
BLOCKOUT
10
118
20
-59
11
212
21
-59
0
LINE
8
BLOCKOUT
10
212
20
-59
11
218
21
-53
0
LINE
8
BLOCKOUT
10
218
20
-53
11
218
21
38
0
LINE
8
BLOCKOUT
10
218
20
38
11
212
21
44
0
LINE
8
BLOCKOUT
10
212
20
44
11
118
21
44
0
LINE
8
BLOCKOUT
10
118
20
44
11
112
21
38
0
LINE
8
BLOCKOUT
10
112
20
38
11
112
21
-53
0
CIRCLE
8
ANCHOR
10
130
20
-40
40
2
0
CIRCLE
8
ANCHOR
10
165
20
-40
40
2
0
CIRCLE
8
ANCHOR
10
200
20
-40
40
2
0
CIRCLE
8
ANCHOR
10
130
20
25
40
2
0
CIRCLE
8
ANCHOR
10
165
20
25
40
2
0
CIRCLE
8
ANCHOR
10
200
20
25
40
2
0
TEXT
8
DIMS
10
100
20
-8
40
3
1
7'-6"
0
TEXT
8
DIMS
10
155
20
-72
40
3
1
10'-7 1/2"
0
TEXT
8
DIMS
10
0
20
-85
40
3
1
NOTES:
0
TEXT
8
DIMS
10
0
20
-95
40
2.5
1
1. BLOCKOUT = BASE PLATE + 6" EACH SIDE
0
TEXT
8
DIMS
10
0
20
-103
40
2.5
1
2. 45 DEG CHAMFER AT CORNERS
0
TEXT
8
DIMS
10
0
20
-111
40
2.5
1
3. INFILL TO BE POURED AFTER COLUMN SET
0
ENDSEC
0
EOF
